<?xml version="1.0" encoding="utf-8"?>
<!-- Generator: Adobe Illustrator 19.1.0, SVG Export Plug-In . SVG Version: 6.00 Build 0)  -->
<svg version="1.1" id="Layer_1" xmlns="http://www.w3.org/2000/svg" xmlns:xlink="http://www.w3.org/1999/xlink" x="0px" y="0px"
	 viewBox="-102 309.1 406.2 174.9" style="enable-background:new -102 309.1 406.2 174.9;" xml:space="preserve">
<style type="text/css">
	.st0{fill:#FFFFFF;}
	.st1{fill:#EE0000;}
</style>
<g id="text">
	<g>
		<g>
			<polygon class="st0" points="82,455.3 78.1,470.6 78,470.6 74.4,455.3 67,455.3 61,478.8 66.5,478.8 70.3,463.8 70.4,463.8 
				74.2,478.8 81.4,478.8 87.4,455.3 			"/>
			<path class="st0" d="M50.5,455.3c-5.1,7.9-10.2,15.9-15.5,23.5h6.8l4.1-6.8h7.3l0.4,6.8h6.6c-0.8-7.8-1.7-15.8-2.2-23.5H50.5z
				 M48.7,467.1l4.1-6.7h0.1l0.4,6.7H48.7z"/>
			<path class="st0" d="M95.1,461.6c0.3-1.2,2.1-1.7,3.1-1.7c1.8,0,2.9,0.5,4.1,1.2c0,0,1.2-4.7,1.2-4.9c-1.9-1.1-4-1.4-5.6-1.4
				c-5.5,0-8.4,3.3-8.9,6.1c-1,5.5,5.5,8.5,4.8,11c-0.5,1.9-2.3,2-3.3,2c-1.7,0-3.4-0.6-4.8-1.4l-1.3,5.5c1.7,0.6,4.3,1.2,6.3,1.2
				c6.4,0,8.5-2.9,9.2-6.1C100.9,467.6,94.4,464.6,95.1,461.6z"/>
			<path class="st0" d="M32.2,461.6c0.3-1.2,2.1-1.7,3.1-1.7c1.8,0,2.9,0.5,4.1,1.2c0,0,1.5-4.5,1.5-4.7c-2.1-1.3-4.4-1.5-5.9-1.5
				c-5.5,0-8.4,3.3-8.9,6.1c-1,5.5,5.5,8.5,4.8,11c-0.5,1.9-2.3,2-3.3,2c-1.7,0-3.4-0.6-4.8-1.4l-1.3,5.5c1.7,0.6,4.3,1.2,6.3,1.2
				c6.5,0,8.5-2.9,9.2-6.1C38,467.6,31.4,464.7,32.2,461.6z"/>
		</g>
		<g>
			<polygon class="st0" points="191.8,470.6 191.7,470.6 188,455.3 180.7,455.3 174.7,478.8 180.1,478.8 184,463.8 184,463.8 
				187.9,478.8 195.1,478.8 201.1,455.3 195.7,455.3 			"/>
			<polygon class="st0" points="122.6,460.3 131.5,460.3 132.8,455.3 117.7,455.3 111.7,478.8 117.9,478.8 120.3,469.5 127.8,469.5 
				129,464.5 121.5,464.5 			"/>
			<polygon class="st0" points="220.8,455.3 203.3,455.3 202,460.3 207.7,460.3 202.9,478.8 209.2,478.8 213.9,460.3 219.5,460.3 
							"/>
			<polygon class="st0" points="223,455.3 217,478.8 223.2,478.8 229.2,455.3 			"/>
			<polygon class="st0" points="243.2,469.5 244.5,464.4 236.7,464.4 237.8,460.3 247.6,460.3 248.9,455.3 232.9,455.3 226.9,478.8 
				242.9,478.8 244.2,473.8 234.4,473.8 235.5,469.5 			"/>
			<polygon class="st0" points="282.9,469.5 284.2,464.4 276.3,464.4 277.3,460.3 287.2,460.3 288.4,455.3 272.4,455.3 266.4,478.8 
				282.4,478.8 283.7,473.7 273.9,473.7 275,469.5 			"/>
			<path class="st0" d="M166.7,454.9c-7,0-12.9,4.4-14.9,12.2s1.7,12.2,8.7,12.2c6.6,0,12.6-3.9,14.8-11.5l0,0
				C177.5,459.5,173.7,454.9,166.7,454.9z M169.2,467.1c-1,3.7-3.9,7.1-7.4,7.1c-3.7,0-4.7-3.4-3.8-7c0.9-3.6,3.6-7.1,7.4-7.1
				C169,460.1,170,463.3,169.2,467.1L169.2,467.1z"/>
			<path class="st0" d="M295.9,461.6c0.3-1.2,2.1-1.7,3.1-1.7c1.8,0,2.9,0.5,4.1,1.2c0,0,1.2-4.7,1.2-4.9c-1.9-1.1-4-1.3-5.6-1.3
				c-5.5,0-8.4,3.3-8.9,6.1c-1,5.5,5.5,8.5,4.8,11c-0.5,1.9-2.3,2-3.3,2c-1.7,0-3.4-0.6-4.8-1.4l-1.5,5.5c1.7,0.6,4.3,1.2,6.3,1.2
				c6.4,0,8.5-2.9,9.2-6.1C301.6,467.6,295,464.6,295.9,461.6z"/>
			<path class="st0" d="M145.2,468.5c3.1-0.6,5.6-3.4,6.2-6c1.2-4.7-0.2-7.2-5.4-7.2h-10.5l-6,23.5h5.9l4.7-18.6h3
				c0.9,0,2.8,0,2.2,2.5c-0.5,1.9-1.9,3.1-4.6,3h-0.2h-2l2.2,13h6.7C147.4,478.8,145.2,469,145.2,468.5z"/>
			<path class="st0" d="M261.7,468.5c3.1-0.6,5.6-3.4,6.3-6c1.2-4.7-0.2-7.2-5.4-7.2H252l-6,23.5h5.9l4.8-18.6h3
				c0.9,0,2.8,0,2.2,2.5c-0.5,1.9-1.9,3.1-4.6,3h-0.2h-2l2.2,13h6.7C263.9,478.8,261.8,469,261.7,468.5z"/>
		</g>
		<g>
			<polygon class="st0" points="134.2,448.4 135.5,443.4 125.7,443.4 126.8,439.1 134.8,439.1 136.1,434.1 128.1,434.1 129.1,430 
				138.9,430 140.2,424.9 124.2,424.9 118.2,448.4 			"/>
			<polygon class="st0" points="92.7,448.5 94,443.4 84.2,443.4 85.3,439.1 93.2,439.1 94.5,434.1 86.5,434.1 87.6,430 97.4,430 
				98.7,424.9 82.7,424.9 76.7,448.5 			"/>
			<path class="st0" d="M147.6,448.8c1.1,0,4.2-0.4,6-0.7l1.5-5.4c-1.8,0.5-3.7,1-6.2,1c-3.8,0-4.8-3.4-3.8-7
				c0.8-3.1,3.7-7.1,8.5-7.1c1.6,0,3.1,0.4,4.5,1l1.3-5.3c-1.5-0.5-3.8-0.8-5.5-0.8c-7.1,0-13,4.4-15.1,12.2
				C136.8,444.5,140.6,448.8,147.6,448.8z"/>
			<polygon class="st0" points="162.9,448.5 168.9,424.9 162.7,424.9 156.7,448.5 			"/>
			<polygon class="st0" points="58.5,431.6 58.6,431.6 58.3,448.4 63.5,448.5 71.9,431.6 72,431.6 67.7,448.5 73,448.5 78.9,424.9 
				70.7,424.9 63.4,439.7 63.3,439.7 63.7,424.9 55,424.9 49,448.5 54.2,448.5 			"/>
			<polygon class="st0" points="172,448.4 175.9,433.4 175.9,433.4 179.8,448.5 187,448.5 193,424.9 187.6,424.9 183.7,440.2 
				183.6,440.2 179.9,424.9 172.6,424.9 166.6,448.4 			"/>
			<path class="st0" d="M118.9,436.7c2.5-9.9-2.9-11.7-5.8-11.7H102l-6,23.5h9.8C112.6,448.4,117.1,443.5,118.9,436.7z M112.7,436.7
				c-0.9,3.5-3.3,6.7-6.8,6.7h-2.7l3.4-13.4h3.1C113,430,113.8,432.3,112.7,436.7z"/>
			<path class="st0" d="M200.7,431.3c0.3-1.2,2.1-1.7,3.1-1.7c1.8,0,2.9,0.5,4.1,1.2c0,0,1.2-4.6,1.2-4.9c-1.9-1.1-4-1.3-5.6-1.3
				c-5.5,0-8.4,3.3-8.9,6.1c-1,5.5,5.5,8.5,4.8,11c-0.5,1.9-2.3,2-3.3,2c-1.7,0-3.4-0.6-4.8-1.4l-1.3,5.5c1.7,0.6,4.3,1.2,6.3,1.2
				c6.4,0,8.5-2.9,9.2-6.1C206.5,437.3,199.9,434.4,200.7,431.3z"/>
		</g>
	</g>
</g>
<g id="running_x5F_man">
	<path class="st1" d="M-38.5,461.5c1.7-1,5.6-3.1,6-3.4c0.7-0.4,1.2-0.4,1.2-0.2c0.1,0.9,0.1,2.7,1.2,3.1c0.3,0.1,1.2-0.3,1.3-0.1
		c0.4,0.6,0.4,0.5,0.5,0.7s0.7,0.1,0.8,0.2c0.3,0.3,0,0.7,0.2,0.8c0.3,0.3,0.8-0.2,1.1-0.1c0.5,0.1,0.6,0.7,0.5,1
		c-0.1,0.6,0.2,1.1,1.2,0.2c0.5-0.4,0.5-0.2,1-0.4c0.3-0.1,0.7-0.1,0.9,0.1c0.2,0.2,0.5,0.5,0.8,0.6c0.4,0.2,0.8,0,1.1,0.1
		c0.4,0.2,0.4,0.7,0.7,0.8c0.3,0,0.6-0.6,0.9-0.4c0.6,0.5-0.5,1.5,0.3,1.7c0.4,0.1,0.6-0.2,0.9-0.3c0.3,0,0.5-0.4,0.8-0.4
		s0.5,0.3,0.8,0.1s0.5-0.3,0.8-0.4c0.4-0.2,0.8-0.1,1-0.3c0.3-0.2,0.1-0.8,0.9-0.7c0.8,0.2-0.1,0.9,0.2,1.2c0.3,0.2,1,0,1.2-0.1
		c0.5-0.1,0.9-0.7,1-1.1c0.2-0.5,0.9-2,1.2-2.4c0.3-0.4,1-2,1.3-2.6c0.4-0.5,1.8-2.9,2-3.3c0.1-0.4,0.7-0.9,0.8-1.2
		c0.1-0.3,0.4-1.2,0.8-1.9c0.4-0.7,1.4-2.2,1.5-2.5c0.1-0.3,0.9-2.1,1.1-2.6c0.3-0.6,1.2-1.8,1.5-2.4c0.2-0.6,0.9-1.9,0.9-1.9
		l0.7-1.1c0,0,0.2-0.5,0.6-1.2c0.3-0.7,1.3-2.2,1.6-2.7c0.3-0.5,1.1-1.6,1.1-1.6l0.6-1.3l0.5-1c0,0,0.4-1.2,0.6-1.5
		c0.2-0.3,0.8-1.1,1-1.5s0.7-2.3,1-2.8c0.3-0.6,1.6-2.9,1.8-3.4c0.1-0.5,1.5-2.9,1.7-3.5c0.1-0.5,0.2-1.2,0.4-1.5
		c0.2-0.3,0.7-1.2,0.8-1.4c0.1-0.2,1-2.4,1.2-2.8c0.1-0.3,0.2-0.9,0.6-0.9s0.6,0.4,0.9,0.7c0.3,0.4,0.8,0.3,1.2,0.6
		c0.3,0.3,1.4,1.5,1.4,1.7c0,0.2,0.6,0.2,0.8,0.4c0.1,0.2,0.2,0.6,0.4,0.7c0.2,0.1,1.1,0.7,1.3,1c0.2,0.3,0.4,0.8,0.6,1
		s1.3,0.8,1.4,1.1s1.7,2.1,1.8,2.4c0.2,0.3,0.3,0.9,0.5,1.1c0.1,0.2,0.7,0.6,0.7,0.8s0.1,1.1,0.2,1.3c0.1,0.2,0.8,0.5,0.9,0.7
		c0.1,0.2,0.4,1.1,0.5,1.2c0.1,0.1,0.4,0.3,0.5,0.5c0.1,0.2,0.2,1.2,0.3,1.4c0.1,0.2,0.6,1,0.7,1.3c0.1,0.3,0.6,0.9,0.7,1.2
		c0.1,0.2,0.1,1.2,0.2,1.5c0.1,0.3,0.5,1,0.6,1.2c0,0.2,0.1,0.7,0.1,0.7l0.4,0.9c0,0,0.4,0.9,0.4,1.2c0,0.3,0.1,0.7,0.1,0.9
		c0,0.2,0.4,0.8,0.4,1c0,0.2,0.5,1.2,0.5,1.2s-0.1,0.9,0,1.2c0.1,0.2,0.5,0.9,0.5,1.1c0,0.2-0.1,0.8-0.1,0.8l0.2,0.4
		c0,0-0.1,0.5,0,0.7c0.1,0.2-0.1,0.6,0,0.7c0.1,0.1,0.5,1.1,0.5,1.1c-0.3,0.3-19.5,9.2-27.8,13.1c-11.9,5.5-36.6,17.9-39.2,19.4
		s-4.3,2.4-4.9,2.1c-1.5-0.8-3.8-2.9-5.5-7.4c-1.4-3.8-1.4-7-1.3-8.6c0.1-1.2,0-2.1,1.8-3.2C-43.6,464.4-40.2,462.5-38.5,461.5"/>
	<path class="st1" d="M-72.7,393.4c0.1,0.2,0.5,0.2,0.8,0.2c0.2,0,0.5,0.3,0.7,0.4c0.2,0,0.5-0.1,0.6,0c0.3,0.2,0.2,0.5,0.4,0.8
		c0.2,0.3,0.3,0.7,0.6,0.8c0.3,0.1,0.6,0,0.7,0.3c0.1,0.3-0.1,0.7,0.1,1.1c0.5,0.9,0.1,3.5,0.5,3.6c0.5,0.2,1.9-0.3,2.3-0.7
		c0.5-0.4,1.2-1.2,1.6-1.4c0.7-0.3,2.1-1.1,2.8-1.2s1-1.2,1.7-1.3c0.7-0.1,0.4-0.6,0.9-0.8s1.3-0.7,1.6-0.4c0.1,0.1,0.4,0.5,0.8,0.6
		c0.5,0.2,1-0.1,1.1,0.5c0.1,0.8,1.4,0.1,1.4,0.1s1.5-1,2.2-1.3c0.6-0.3,2.4-1.2,2.4-1.2s1.4-0.7,1.9-1c20.8-10,37.1-15.5,52.2-21.3
		c23.4-9.1,63.9-19.5,71.6-21.4c0.8-0.2,2.6-0.5,2.8-0.6s0.6-0.2,0.8-1c0.2-0.7-0.4-1.7-0.4-2.1s0.8-1.8,0.9-2.5
		c0.1-0.6-0.6-0.7-0.6-0.7s0.1-0.8-0.1-1.4c-0.2-0.6-1.2-1.1-1.4-1.6s0-1.8-0.2-2.3s-0.7-0.8-0.7-0.8s0.1-0.2,0-0.6
		s-0.6-0.4-0.6-0.4s0.2-0.9,0.1-1.2c-0.1-0.3-0.6-0.6-0.6-0.6s-0.6-0.4-0.6-0.7c0-0.4-0.1-0.6-0.4-0.8c-0.3-0.2-1.1-0.2-1.4-0.3
		c-0.3-0.1-0.9-0.3-1.4-0.2c-0.5,0.1-0.6,0.5-1.9,0.7c-1.3,0.3-1.8,0-2.4,0.1c-0.6,0.1-1.2,0.5-1.8,0.6c-6.3,1.6-35,10-56.2,18
		c-19.7,7.4-43.2,18.1-57.5,25.5c-10.8,5.6-16.6,8.9-19,10.4c-1.2,0.8-2.6,1.7-2.8,2c-0.3,0.6-0.7,1.4-1.4,1.5
		c-0.9,0.1-0.7,0.6-1,0.7c-0.3,0.1-0.7,0.4-1,0.7C-72.9,392.8-72.8,393.2-72.7,393.4"/>
	<path class="st1" d="M16.8,380.5c-1-0.6-0.6-1.1,0.5-1.6c6.9-2.9,24.2-9.1,34.1-12.3c8.5-2.7,31.9-10.3,38.4-12.2
		c1.6-0.4,2.2-0.4,2.9,0.3c1.8,1.9,3.5,4.4,5.1,7.5c1.5,2.9,2.8,7.1,3.3,9.7c0.4,1.9-0.5,2.3-1.6,2.7c-7.2,3.2-25.1,11.1-32.6,14.6
		c-7.3,3.4-20.6,9.8-25.1,12.1c-1.9,1-1.6,1.3-2.9-0.1c-0.4-0.4-1-1.5-1.2-1.8c-0.2-0.3-2.7-2.5-3-2.8c-0.3-0.3-1.7-1.9-2-2.2
		c-0.4-0.3-1.6-1.9-1.9-2.1c-0.4-0.2-1-0.5-1.3-0.8s-0.8-0.9-1-1c-0.3-0.2-0.9-0.8-0.9-0.8l-0.9-0.8l-0.7-0.8c0,0-0.6-0.8-1.1-1
		c-0.5-0.2-1.1-0.9-1.3-1.2c-0.2-0.3-1.7-2.1-2.4-2.6c-0.7-0.5-2.5-1.6-2.9-1.9C18.1,381.3,17.6,381,16.8,380.5"/>
	<path class="st1" d="M43.2,405.8c-0.7-0.7,0.2-0.8,1-1.1c3-1.2,21.1-6.8,36.8-10.9c15.7-4.1,38.3-8.8,41.7-9.5
		c1.4-0.3,2-0.1,2.7,1.1c0.8,1.3,2.6,5.8,3.2,9.4c0.8,4.6,0,9.2-0.4,10.3c-0.3,0.9-1.6,1-4.7,1.8c-1.8,0.5-9.6,2.5-12.8,3.4
		c-3.7,1.1-13.5,3.9-17.1,5.1c-4.5,1.5-10.3,3.5-10.3,3.5l-31.1,0.5c0,0-0.5-2.1-0.7-2.3c-0.3-0.2-0.7-1.2-1-1.5s-0.6-1.3-0.6-1.3
		s-0.3-1.1-0.6-1.3s-0.9-1.8-1.2-2s-0.9-1-1.2-1.4s-0.4-0.8-0.9-1.2s-1-1.1-1.4-1.3C44.2,407.1,43.9,406.5,43.2,405.8"/>
	<path class="st1" d="M5.6,345.9c-0.9,0-1.7,0-1.9-0.2c-0.1-0.2,0-0.4-0.2-0.6c-0.2-0.2-0.7-0.1-0.8,0c-0.1,0.1-0.1,0.1-0.4,0.2
		c-0.3,0.1-1.5-0.3-1.9-0.2s-1.3,0.2-1.6,0c-0.3-0.2-0.4-1-0.9-1.2c-0.3-0.1-1.1-0.6-1.4-1.1s-1-1.2-1.2-1.5
		c-0.2-0.3-0.4-0.9-0.5-1.2s-0.4-0.9-0.5-1.1c-0.2-0.2-0.4-0.4-0.6-0.6c-0.2-0.2-0.3-0.9-0.5-1.1c-0.1-0.1-0.3-0.4-0.4-0.7
		c-0.1-0.2-0.1-0.5-0.2-0.7c-0.1-0.3-0.4-0.6-0.5-0.9c-0.1-0.2-0.2-1.9-0.1-3.1c0-1.2,0-2.3,0.1-2.9c0.1-0.5,0.4-1,0.5-1.5
		s0.8-2.2,0.9-3c0.2-0.8,0.6-2.3,0.8-2.8c0.2-0.5,0.8-1.9,1-2.4c0.3-0.4,1.3-2,1.7-2.5c0.4-0.5,2.3-2.4,2.8-2.8
		c0.4-0.3,1.5-1.1,1.8-1.3c0.2-0.1,1.5-1.1,2-1.3c0.3-0.2,0.8-0.2,0.8-0.2l0.4-0.5c0,0,0.2-0.3,0.5-0.4c0.2-0.2,0.8-0.2,0.8-0.2
		s0.7-0.5,1.4-0.4c0.3,0.1,0.5-0.5,0.8-0.6s1.3-0.2,1.4-0.1s0.3,0.3,0.9,0.4s1,0,1.2,0c0.3,0.1,0.6,0.4,0.8,0.5
		c0.2,0.1,2.7,2.4,3.1,3c0.1,0.2,0.2,0.6,0.2,0.7c0.1,0.2,0.5,0.5,0.7,1.1c0.1,0.5,0.6,0.7,0.7,1.4c0,0.4,0.8,0.8,1.1,1.7
		c0.1,0.2,0.2,1.1,0.2,1.2c0.1,0.1,0.3,0.2,0.4,0.5s0.2,0.8,0.1,1.1c0,0.4,0.7,1.8,0.6,2.7c-0.1,0.9-0.2,1.8-0.4,2.5
		c-0.2,0.7-0.1,1.9-0.2,2.4s-0.5,1.8-0.6,2.1c-0.1,0.4-1.1,3-1.3,3.3c-0.2,0.3-0.8,1.5-1.1,1.8c-0.3,0.3-2.4,3.3-2.8,3.7
		s-1.3,1.1-1.5,1.4c-0.3,0.4-0.5,0.8-0.7,1.3c-0.4,0.7-1,0.2-1.3,0.7c-0.4,0.7-1.1,0.8-1.2,1.2c-0.2,0.6-0.7,1.1-0.9,1.3
		C7.3,345.5,6.2,345.9,5.6,345.9"/>
	<path class="st1" d="M-56.5,436.9c0,0-9.1,3.1-12.7,4.4c-3.4,1.2-7.2,2.6-9.8,3.6c-3.1,1.3-8.5,3.5-9.8,3.9c-2,0.7-2.9,0.3-3.4-0.9
		c-0.6-1.2-1.9-3.7-2.6-6.7c-0.7-3-1-5.4-1-6.3c0-0.9,0.7-2.5,1.8-3.1s3.8-2.2,5.9-3.4c4.1-2.3,18-9.8,26.3-14.1
		c8.8-4.6,22.7-11.3,30.2-15c7.5-3.7,19.7-9.5,21.2-10.1s3-1.4,3.8-1.4s0.5,0.4,0.5,0.6c0,0.3-0.3,0.4-0.3,0.9
		c-0.1,0.6,0,1.2-0.2,1.7s-0.7,1.1-0.8,1.4c-0.1,0.4-0.2,1.7-0.5,2.1c-0.4,0.5-1.7,3-2,4.2c-0.3,1.2-0.9,3.2-1.2,3.6
		c-0.3,0.5-1.2,2.2-1.2,2.7c-0.1,0.6-0.7,1.9-0.9,2.4c-0.2,0.6-1.3,2.6-1.5,3s-0.9,2.8-1.1,3.2s-0.9,1.5-0.9,1.5l-0.4,1.6
		c0,0-1,1.5-1,1.8s-0.7,2.8-1.1,3.3s-2.1,4.5-2.5,5.9c-0.4,1.4-1,3.4-1.2,3.9s-1.2,2.1-1.4,2.7c-0.2,0.6-1,3.3-1.3,3.9
		c-0.3,0.6-1,2.1-1,2.7s-0.6,1.8-1,2.8c-0.5,1-1,2.8-1.3,3.4c-0.3,0.6-0.6,1.1-0.7,1.5c-0.1,0.4-0.2,1.4-0.3,1.7
		c-0.1,0.3-0.3,0.7-0.3,0.7c-0.5,0.2-25.3,10.9-28.8,12.5c-3.5,1.7-28.7,13.6-30.2,14.3c-1.6,0.7-3.7,2.3-5.2,1.3
		c-2-1.4-3.9-4.2-5.2-6.7c-1.1-2.1-2.2-5.6-2.4-8.1c-0.2-3.2,1.1-3.8,5.8-6.5c2.3-1.2,20.4-10.7,26.2-13.7
		C-68.4,443.2-56.5,436.9-56.5,436.9"/>
</g>
</svg>
